<svg xmlns="http://www.w3.org/2000/svg" xmlns:xlink="http://www.w3.org/1999/xlink" width="150" height="320" fill="none" viewBox="0 0 150 320"><mask id="a" width="115" height="305" x="32" y="10" maskUnits="userSpaceOnUse" style="mask-type:alpha"><path fill="#00B35D" d="M127.22 247.3H145v65.45h-15.18L91.59 282.7c-4.01-2.9-7.52-5.16-10.52-6.79a45.22 45.22 0 0 0-8.17-3.5 24.59 24.59 0 0 0-6.86-1.07c-3.3 0-6.13.38-8.47 1.14-2.4.76-4.22 1.9-5.5 3.43a7.93 7.93 0 0 0-1.98 5.5 9.2 9.2 0 0 0 2.44 6.56 14.97 14.97 0 0 0 6.72 3.89c2.8.81 5.97 1.22 9.53 1.22v21.44a41.3 41.3 0 0 1-18.3-4.05 33.03 33.03 0 0 1-13.2-11.52c-3.31-4.98-4.96-10.96-4.96-17.93 0-6.81 1.27-12.5 3.81-17.09a24.63 24.63 0 0 1 10.91-10.45c4.68-2.39 10.27-3.58 16.78-3.58 3.72 0 7.33.48 10.84 1.45 3.46.96 6.92 2.34 10.37 4.12 3.41 1.78 6.9 3.96 10.46 6.56 3.56 2.6 7.24 5.52 11.06 8.77l20.67 14.5v-38ZM79.7 169.23H99c8.35 0 15.52.8 21.52 2.37 6 1.58 10.93 3.79 14.8 6.64a26.79 26.79 0 0 1 8.47 10.14 30.25 30.25 0 0 1 2.75 12.97c0 3.77-.59 7.3-1.76 10.6a27.09 27.09 0 0 1-5.34 9.01 33.38 33.38 0 0 1-9.23 6.87 52.75 52.75 0 0 1-13.35 4.35A93.4 93.4 0 0 1 99 233.7H79.7c-8.35 0-15.5-.79-21.45-2.36-6-1.63-10.9-3.87-14.72-6.72a26.1 26.1 0 0 1-8.4-10.14 30.76 30.76 0 0 1-2.74-13.05c0-3.71.59-7.22 1.76-10.53A24.42 24.42 0 0 1 39.4 182c2.4-2.65 5.47-4.91 9.23-6.8A49.53 49.53 0 0 1 62 170.78a91.74 91.74 0 0 1 17.7-1.53Zm22.28 21.44h-25.4c-3.92 0-7.35.18-10.3.54-2.95.3-5.45.74-7.48 1.3-2.04.55-3.69 1.3-4.96 2.2a8.53 8.53 0 0 0-2.75 3.06 7.68 7.68 0 0 0-.91 3.74c0 1.62.46 3.1 1.37 4.42.92 1.32 2.42 2.47 4.5 3.44 2.04.96 4.76 1.7 8.17 2.2 3.35.46 7.47.7 12.36.7h25.4c3.92 0 7.38-.16 10.38-.46 3-.36 5.57-.84 7.7-1.45 2.09-.66 3.77-1.4 5.04-2.22a8.66 8.66 0 0 0 2.82-2.97c.56-1.17.84-2.44.84-3.82a7.6 7.6 0 0 0-1.37-4.42c-.97-1.37-2.5-2.52-4.58-3.43a31.25 31.25 0 0 0-8.24-2.06c-3.46-.51-7.66-.77-12.59-.77Zm25.25-101.47H145v65.46h-15.18l-38.23-30.06c-4.01-2.9-7.52-5.16-10.52-6.79a45.22 45.22 0 0 0-8.17-3.5 24.59 24.59 0 0 0-6.86-1.07c-3.3 0-6.13.38-8.47 1.14-2.4.76-4.22 1.9-5.5 3.43a7.93 7.93 0 0 0-1.98 5.5 9.2 9.2 0 0 0 2.44 6.56 14.95 14.95 0 0 0 6.72 3.89c2.8.81 5.97 1.22 9.53 1.22v21.44a41.3 41.3 0 0 1-18.3-4.05 33.04 33.04 0 0 1-13.2-11.52c-3.31-4.98-4.96-10.96-4.96-17.93 0-6.81 1.27-12.5 3.81-17.09A24.63 24.63 0 0 1 47.04 95.4c4.68-2.39 10.27-3.58 16.78-3.58 3.72 0 7.33.48 10.84 1.45 3.46.96 6.92 2.34 10.37 4.12 3.41 1.78 6.9 3.96 10.46 6.56 3.56 2.6 7.24 5.52 11.06 8.77l20.67 14.5v-38Zm0-79.04H145v65.46h-15.18L91.59 45.57c-4.01-2.9-7.52-5.16-10.52-6.79a45.19 45.19 0 0 0-8.17-3.5 24.58 24.58 0 0 0-6.86-1.07c-3.3 0-6.13.38-8.47 1.14-2.4.76-4.22 1.9-5.5 3.43a7.93 7.93 0 0 0-1.98 5.5 9.2 9.2 0 0 0 2.44 6.56 14.96 14.96 0 0 0 6.72 3.89c2.8.81 5.97 1.22 9.53 1.22v21.44a41.31 41.31 0 0 1-18.3-4.05 33.04 33.04 0 0 1-13.2-11.52c-3.31-4.98-4.96-10.96-4.96-17.92 0-6.82 1.27-12.52 3.81-17.1a24.63 24.63 0 0 1 10.91-10.45c4.68-2.39 10.27-3.58 16.78-3.58 3.72 0 7.33.48 10.84 1.45 3.46.96 6.92 2.34 10.37 4.12A83.5 83.5 0 0 1 95.5 24.9a184.3 184.3 0 0 1 11.06 8.77l20.67 14.5v-38Z"/></mask><g mask="url(#a)"><path fill="url(#b)" d="M-240.68-133.25h586.36v488.58h-586.36z"/></g><defs><pattern id="b" width="1" height="1" patternContentUnits="objectBoundingBox"><use xlink:href="#c" transform="matrix(.00093 0 0 .00111 -.24 0)"/></pattern></defs></svg>